<svg width="17" height="17" viewBox="0 0 17 17" fill="none" xmlns="http://www.w3.org/2000/svg">
<g clip-path="url(#clip0_32_53)">
<path d="M15.5621 12.9838C15.5621 13.2388 15.5054 13.5009 15.385 13.7559C15.2646 14.0109 15.1087 14.2517 14.9033 14.4784C14.5562 14.8609 14.1737 15.1372 13.7417 15.3142C13.3167 15.4913 12.8562 15.5834 12.3604 15.5834C11.6379 15.5834 10.8658 15.4134 10.0512 15.0663C9.23666 14.7192 8.42207 14.2517 7.61457 13.6638C6.79157 13.0618 6.01494 12.3988 5.29124 11.6805C4.57495 10.9594 3.91431 10.1851 3.31499 9.36425C2.73416 8.55675 2.26666 7.74925 1.92666 6.94883C1.58666 6.14133 1.41666 5.36925 1.41666 4.63258C1.41666 4.15091 1.50166 3.6905 1.67166 3.2655C1.84166 2.83341 2.11082 2.43675 2.48624 2.08258C2.93957 1.63633 3.43541 1.41675 3.95957 1.41675C4.15791 1.41675 4.35624 1.45925 4.53332 1.54425C4.71749 1.62925 4.88041 1.75675 5.00791 1.94091L6.65124 4.25717C6.77874 4.43425 6.87082 4.59716 6.93457 4.753C6.99832 4.90175 7.03374 5.0505 7.03374 5.18508C7.03374 5.35508 6.98416 5.52508 6.88499 5.688C6.79291 5.85091 6.65832 6.02091 6.48832 6.19091L5.94999 6.7505C5.87207 6.82841 5.83666 6.9205 5.83666 7.03383C5.83666 7.0905 5.84374 7.14008 5.85791 7.19675C5.87916 7.25341 5.90041 7.29591 5.91457 7.33841C6.04207 7.57216 6.26166 7.87675 6.57332 8.24508C6.89207 8.61342 7.23207 8.98883 7.60041 9.36425C7.98291 9.73967 8.35124 10.0867 8.72666 10.4055C9.09499 10.7172 9.39957 10.9297 9.64041 11.0572C9.67582 11.0713 9.71832 11.0926 9.76791 11.1138C9.82457 11.1351 9.88124 11.1422 9.94499 11.1422C10.0654 11.1422 10.1575 11.0997 10.2354 11.0217L10.7737 10.4905C10.9508 10.3134 11.1208 10.1788 11.2837 10.0938C11.4467 9.99467 11.6096 9.94508 11.7867 9.94508C11.9212 9.94508 12.0629 9.97342 12.2187 10.0372C12.3746 10.1009 12.5375 10.193 12.7146 10.3134L15.0592 11.978C15.2433 12.1055 15.3708 12.2542 15.4487 12.4313C15.5196 12.6084 15.5621 12.7855 15.5621 12.9838Z" stroke="black" stroke-width="1.5" stroke-miterlimit="10"/>
</g>
<defs>
<clipPath id="clip0_32_53">
<rect width="17" height="17" fill="white"/>
</clipPath>
</defs>
</svg>
