<svg width="17" height="17" viewBox="0 0 17 17" fill="none" xmlns="http://www.w3.org/2000/svg">
<path d="M8.50001 5.66675V1.41675M8.50001 1.41675L7.08334 2.83341M8.50001 1.41675L9.91668 2.83341" stroke="black" stroke-width="1.5" stroke-linecap="round" stroke-linejoin="round"/>
<path d="M3.54167 8.49999V7.08332C3.54167 5.65957 3.54167 4.48374 5.66667 4.27832M13.4583 8.49999V7.08332C13.4583 5.65957 13.4583 4.48374 11.3333 4.27832M4.95833 8.49999C2.125 8.49999 2.125 9.7679 2.125 11.3333V12.0417C2.125 13.9967 2.125 15.5833 5.66667 15.5833H11.3333C14.1667 15.5833 14.875 13.9967 14.875 12.0417V11.3333C14.875 9.7679 14.875 8.49999 12.0417 8.49999C11.3333 8.49999 11.135 8.64874 10.7667 8.92499L10.0442 9.68999C9.84553 9.90127 9.60574 10.0696 9.33956 10.1847C9.07338 10.2998 8.78645 10.3592 8.49646 10.3592C8.20646 10.3592 7.91954 10.2998 7.65336 10.1847C7.38718 10.0696 7.14739 9.90127 6.94875 9.68999L6.23333 8.92499C5.865 8.64874 5.66667 8.49999 4.95833 8.49999Z" stroke="black" stroke-width="1.5" stroke-miterlimit="10" stroke-linecap="round" stroke-linejoin="round"/>
</svg>
