<svg width="18" height="18" viewBox="0 0 18 18" fill="none" xmlns="http://www.w3.org/2000/svg">
<path d="M9.736 1.18644L14.944 4.00114C15.552 4.32992 15.552 5.26815 14.944 5.59694L9.736 8.41163C9.272 8.66023 8.728 8.66023 8.264 8.41163L3.056 5.59694C2.448 5.26815 2.448 4.32992 3.056 4.00114L8.264 1.18644C8.728 0.937852 9.272 0.937852 9.736 1.18644ZM2.288 7.49746L7.128 9.92724C7.728 10.232 8.112 10.8494 8.112 11.523V16.1099C8.112 16.7755 7.416 17.2005 6.824 16.9038L1.984 14.4741C1.68909 14.3249 1.44109 14.0969 1.26742 13.8153C1.09376 13.5337 1.0012 13.2094 1 12.8783V8.29135C1 7.62576 1.696 7.20075 2.288 7.49746ZM15.712 7.49746L10.872 9.92724C10.272 10.232 9.888 10.8494 9.888 11.523V16.1099C9.888 16.7755 10.584 17.2005 11.176 16.9038L16.016 14.4741C16.616 14.1693 17 13.5519 17 12.8783V8.29135C17 7.62576 16.304 7.20075 15.712 7.49746Z" stroke="#FFEF9E" stroke-linecap="round" stroke-linejoin="round"/>
</svg>
