<svg width="81" height="81" viewBox="0 0 81 81" fill="none" xmlns="http://www.w3.org/2000/svg">
<path d="M43.605 7.62749L65.5762 19.4737C68.1412 20.8575 68.1412 24.8062 65.5762 26.19L43.605 38.0362C41.6475 39.0825 39.3525 39.0825 37.395 38.0362L15.4237 26.19C12.8587 24.8062 12.8587 20.8575 15.4237 19.4737L37.395 7.62749C39.3525 6.58124 41.6475 6.58124 43.605 7.62749ZM12.1837 34.1887L32.6025 44.415C35.1337 45.6975 36.7537 48.2962 36.7537 51.1312V70.4363C36.7537 73.2375 33.8175 75.0263 31.32 73.7775L10.9012 63.5512C9.6571 62.9236 8.61083 61.9641 7.87818 60.7787C7.14554 59.5934 6.75508 58.2285 6.75 56.835V37.53C6.75 34.7287 9.68625 32.94 12.1837 34.1887ZM68.8162 34.1887L48.3975 44.415C45.8662 45.6975 44.2462 48.2962 44.2462 51.1312V70.4363C44.2462 73.2375 47.1825 75.0263 49.68 73.7775L70.0987 63.5512C72.63 62.2687 74.25 59.67 74.25 56.835V37.53C74.25 34.7287 71.3137 32.94 68.8162 34.1887Z" stroke="black" stroke-width="5" stroke-linecap="round" stroke-linejoin="round"/>
</svg>
