<svg width="100" height="104" viewBox="0 0 100 104" fill="none" xmlns="http://www.w3.org/2000/svg">
<path d="M53.8333 10.5777L80.9583 25.5457C84.125 27.2941 84.125 32.2834 80.9583 34.0318L53.8333 48.9998C51.4167 50.3218 48.5833 50.3218 46.1667 48.9998L19.0417 34.0318C15.875 32.2834 15.875 27.2941 19.0417 25.5457L46.1667 10.5777C48.5833 9.25569 51.4167 9.25569 53.8333 10.5777ZM15.0417 44.1384L40.25 57.0595C43.375 58.68 45.375 61.9636 45.375 65.5457V89.938C45.375 93.4774 41.75 95.7376 38.6667 94.1598L13.4583 81.2386C11.9223 80.4456 10.6307 79.2332 9.72615 77.7355C8.82164 76.2378 8.33959 74.5132 8.33333 72.7525V48.3602C8.33333 44.8207 11.9583 42.5606 15.0417 44.1384ZM84.9583 44.1384L59.75 57.0595C56.625 58.68 54.625 61.9636 54.625 65.5457V89.938C54.625 93.4774 58.25 95.7376 61.3333 94.1598L86.5417 81.2386C89.6667 79.6182 91.6667 76.3346 91.6667 72.7525V48.3602C91.6667 44.8207 88.0416 42.5606 84.9583 44.1384Z" stroke="black" stroke-width="5" stroke-linecap="round" stroke-linejoin="round"/>
</svg>
