<svg width="376" height="376" viewBox="0 0 376 376" fill="none" xmlns="http://www.w3.org/2000/svg">
<path d="M202.413 35.4067L304.403 90.3967C316.31 96.82 316.31 115.15 304.403 121.573L202.413 176.563C193.327 181.42 182.673 181.42 173.587 176.563L71.5966 121.573C59.69 115.15 59.69 96.82 71.5966 90.3967L173.587 35.4067C182.673 30.55 193.327 30.55 202.413 35.4067ZM56.5566 158.703L151.34 206.173C163.09 212.127 170.61 224.19 170.61 237.35V326.963C170.61 339.967 156.98 348.27 145.387 342.473L50.6033 295.003C44.828 292.09 39.9712 287.636 36.5703 282.133C33.1694 276.631 31.3569 270.295 31.3333 263.827V174.213C31.3333 161.21 44.9633 152.907 56.5566 158.703ZM319.443 158.703L224.66 206.173C212.91 212.127 205.39 224.19 205.39 237.35V326.963C205.39 339.967 219.02 348.27 230.613 342.473L325.397 295.003C337.147 289.05 344.667 276.987 344.667 263.827V174.213C344.667 161.21 331.037 152.907 319.443 158.703Z" stroke="#FFEF9E" stroke-width="5" stroke-linecap="round" stroke-linejoin="round"/>
</svg>
