<svg width="31" height="31" viewBox="0 0 31 31" fill="none" xmlns="http://www.w3.org/2000/svg">
<path d="M11.0567 5.16666V21.9583M20.3179 8.55082V25.8333M2.95792 10.0492V22.6171C2.95792 25.0712 4.70167 26.0787 6.82 24.8646L9.85542 23.1337C10.5142 22.7592 11.6121 22.7204 12.2967 23.0692L19.0779 26.4662C19.7625 26.8021 20.8604 26.7762 21.5192 26.4017L27.1121 23.1983C27.8225 22.785 28.4167 21.7775 28.4167 20.9508V8.38291C28.4167 5.92874 26.6729 4.92124 24.5546 6.13541L21.5192 7.86624C20.8604 8.24082 19.7625 8.27957 19.0779 7.93082L12.2967 4.54666C11.6121 4.21082 10.5142 4.23666 9.85542 4.61124L4.2625 7.81457C3.53917 8.22791 2.95792 9.23541 2.95792 10.0492Z" stroke="white" stroke-width="1.5" stroke-linecap="round" stroke-linejoin="round"/>
</svg>
