<svg width="31" height="31" viewBox="0 0 31 31" fill="none" xmlns="http://www.w3.org/2000/svg">
<path d="M29.5911 13.5625H5.71447C4.93638 13.5625 4.3056 14.2034 4.3056 14.9941V15.1448C4.3056 15.9354 4.93638 16.5764 5.71447 16.5764H29.5911C30.3692 16.5764 31 15.9354 31 15.1448V14.9941C31 14.2034 30.3692 13.5625 29.5911 13.5625Z" fill="#231F20"/>
<path d="M29.5911 21.0972H5.71447C4.93638 21.0972 4.3056 21.7382 4.3056 22.5288V22.6795C4.3056 23.4702 4.93638 24.1111 5.71447 24.1111H29.5911C30.3692 24.1111 31 23.4702 31 22.6795V22.5288C31 21.7382 30.3692 21.0972 29.5911 21.0972Z" fill="#231F20"/>
<path d="M29.5911 6.02777H5.71441C4.93631 6.02777 4.30554 6.66872 4.30554 7.45937V7.61006C4.30554 8.40071 4.93631 9.04166 5.71441 9.04166H29.5911C30.3692 9.04166 30.9999 8.40071 30.9999 7.61006V7.45937C30.9999 6.66872 30.3692 6.02777 29.5911 6.02777Z" fill="#231F20"/>
</svg>
