<svg width="21" height="21" viewBox="0 0 21 21" fill="none" xmlns="http://www.w3.org/2000/svg">
<path d="M14.8488 12.635C16.0475 12.8362 17.3688 12.6263 18.2963 12.005C19.53 11.1825 19.53 9.835 18.2963 9.0125C17.36 8.39125 16.0213 8.18125 14.8225 8.39125M6.125 12.635C4.92625 12.8362 3.605 12.6263 2.6775 12.005C1.44375 11.1825 1.44375 9.835 2.6775 9.0125C3.61375 8.39125 4.9525 8.18125 6.15125 8.39125M15.75 6.265C15.6949 6.25624 15.6388 6.25624 15.5838 6.265C14.9998 6.24388 14.4469 5.99656 14.042 5.57529C13.6371 5.15403 13.4118 4.59182 13.4138 4.0075C13.4138 2.75625 14.42 1.75 15.6713 1.75C16.27 1.75 16.8442 1.98784 17.2675 2.41121C17.6909 2.83457 17.9288 3.40877 17.9288 4.0075C17.9271 4.59224 17.6995 5.15371 17.2934 5.57446C16.8874 5.99521 16.3343 6.24264 15.75 6.265ZM5.22375 6.265C5.27625 6.25625 5.3375 6.25625 5.39 6.265C5.97395 6.24388 6.52681 5.99656 6.93175 5.57529C7.33668 5.15403 7.56197 4.59182 7.56 4.0075C7.56 2.75625 6.55375 1.75 5.3025 1.75C4.70378 1.75 4.12957 1.98784 3.70621 2.41121C3.28285 2.83457 3.045 3.40877 3.045 4.0075C3.05375 5.2325 4.01625 6.22125 5.22375 6.265ZM10.5 12.8013C10.4449 12.7925 10.3888 12.7925 10.3338 12.8013C9.74981 12.7801 9.19695 12.5328 8.79201 12.1115C8.38707 11.6903 8.16178 11.1281 8.16375 10.5438C8.16375 9.2925 9.17 8.28625 10.4213 8.28625C11.02 8.28625 11.5942 8.52409 12.0175 8.94746C12.4409 9.37082 12.6788 9.94502 12.6788 10.5438C12.67 11.7688 11.7075 12.7663 10.5 12.8013ZM7.95375 15.5575C6.72 16.38 6.72 17.7275 7.95375 18.55C9.35375 19.4863 11.6463 19.4863 13.0463 18.55C14.28 17.7275 14.28 16.38 13.0463 15.5575C11.655 14.63 9.35375 14.63 7.95375 15.5575Z" stroke="white" stroke-width="1.5" stroke-linecap="round" stroke-linejoin="round"/>
</svg>
